<?xml version="1.0" encoding="utf-8"?>
<!-- Generator: Adobe Illustrator 18.1.1, SVG Export Plug-In . SVG Version: 6.00 Build 0)  -->
<svg version="1.1" id="Layer_1" xmlns="http://www.w3.org/2000/svg" xmlns:xlink="http://www.w3.org/1999/xlink" x="0px" y="0px"
	 viewBox="-292 379.9 26.9 34.1" enable-background="new -292 379.9 26.9 34.1" xml:space="preserve">
<g id="XMLID_1_">
	<g>
		<path fill="#D22856" d="M-267.1,393.4l-11.5-6.7l-11.4,6.8l11.4,6.8l1.8-1.1l-1.9-1.1l0-1.4l3,1.8l0.8-0.5l-3.8-2.3l0-1.4l5,3
			l0.9-0.5l-5.9-3.5l0-1.4l7.1,4.2L-267.1,393.4z M-267,404.9v-10l-3.4,2v3.8l0,0.1v1.3l-8.1,4.9l0,0l-8-4.8l0-1.4l8,4.7l0-1.1
			l-8-4.8l0-1.4l7.9,4.7l0-1l-11.4-6.8v9.9l11.5,6.9L-267,404.9z M-267,392v-9l-11.5-1.2l-11.5,1.2v9l11.4-6.8v-0.1l0.1,0.1l0.1,0
			v0.1L-267,392z M-265.1,381.3V406l0,0l-13.4,8l-13.5-8v-24.7l13.5-1.4l0.1,0L-265.1,381.3z"/>
	</g>
	<g>
	</g>
</g>
</svg>
