<?xml version="1.0" encoding="utf-8"?>
<!-- Generator: Adobe Illustrator 18.1.1, SVG Export Plug-In . SVG Version: 6.00 Build 0)  -->
<svg version="1.1" id="Layer_1" xmlns="http://www.w3.org/2000/svg" xmlns:xlink="http://www.w3.org/1999/xlink" x="0px" y="0px"
	 viewBox="-296 389.3 17.5 14.7" enable-background="new -296 389.3 17.5 14.7" xml:space="preserve">
<g>
	<g id="XMLID_1_">
		<g>
			<path fill="#D22856" d="M-281,390.6c0.7-0.2,1.4-0.5,2.1-0.7c0,0.8-0.5,1.5-0.9,1.7c0.7,0.2,1.3-0.5,1.3-0.5c-0.2,1-1,1.8-1.6,2
				c-0.2,6.6-3.3,11-10.4,10.8c-0.1,0-0.2,0-0.2,0c0,0,0,0-0.2,0c-0.4,0-4.3-0.5-5-1.8c2.3,0.2,4-0.4,4.8-1.1
				c-1-0.3-2.8-0.5-3.1-2.9c0.4,0.1,0.6,0.2,1.2,0.1c-1.2-0.8-2.6-1.5-2.5-3.7c0.3,0.3,1.1,0.5,1.4,0.5c-0.7-0.2-2-3.3-0.9-4.8
				c1.9,1.8,3.8,3.5,7.4,3.7c0.2-2.2,1.2-3.7,3-4.4C-283,389-281.6,389.8-281,390.6z"/>
		</g>
		<g>
		</g>
	</g>
</g>
</svg>
